:SAMPLES-PER-SECOND 30
:FULLY-SPECIFIED
:DEGREES
330
root  -3.76358 41.0162 0.0997296 170.621 -88.4548 -167.633
RightUpLeg  0.990607 -0.819061 -0.995789
RightLeg  -5.50935 -19.0506 2.47435
RightFoot  2.25929 -0.255489 2.2781
RightToes  -3.1126e-008 1.75238e-005 3.56266e-009
Spine  6.18608 -3.26775 -5.18461
Spine1  -11.1376 -3.84276 6.54859
HEad  -3.67925 1.42039 2.03925
LeftShoulder1  0.477872 1.51884 -17.3929
LeftArm  -5.79671 29.8837 -65.4036
LeftForeArm  91.807 -80.3411 -71.0171
LeftHand  -0.608126 -5.07314 7.04912
RightShoulder  0.0499077 -3.25168 14.8168
RightArm  -53.3721 8.3802 23.1362
RightForeArm  88.757 78.9062 103.831
RightHand  -0.0436576 8.06359 -0.754739
LeftUpLeg  1.64291 1.39907 3.18194
LeftLeg  -4.85862 18.7035 -1.97394
LeftFoot  1.47061 0.357498 -3.29953
LeftToes  4.78049e-008 1.46235e-008 1.34219e-009
331
root  -3.73357 41.0156 0.112059 169.439 -88.5415 -166.506
RightUpLeg  1.04544 -0.822297 -0.997684
RightLeg  -5.58386 -19.1326 2.49848
RightFoot  2.30744 -0.257373 2.2864
RightToes  -3.1126e-008 1.75238e-005 3.56266e-009
Spine  6.27604 -3.32928 -5.41604
Spine1  -10.9783 -3.95467 6.9328
HEad  -4.76532 1.23848 1.3399
LeftShoulder1  0.461225 1.59544 -17.4913
LeftArm  -5.3339 30.532 -65.7502
LeftForeArm  90.7968 -80.2846 -70.2686
LeftHand  -0.643059 -4.77246 7.63454
RightShoulder  0.053795 -3.2343 14.8712
RightArm  -54.3342 7.49237 22.6544
RightForeArm  89.495 78.8437 104.857
RightHand  -0.0623458 8.49058 -0.905703
LeftUpLeg  1.58189 1.35937 3.14203
LeftLeg  -4.74706 18.7406 -1.89668
LeftFoot  1.42793 0.355895 -3.30061
LeftToes  4.78049e-008 1.46235e-008 1.34219e-009
332
root  -3.70251 41.0149 0.127707 171.405 -88.3157 -168.643
RightUpLeg  1.1192 -0.824559 -1.02373
RightLeg  -5.49732 -18.873 2.41168
RightFoot  2.34081 -0.258516 2.27857
RightToes  -3.1126e-008 1.75238e-005 3.56266e-009
Spine  6.3107 -3.15933 -5.23166
Spine1  -10.7408 -3.78736 6.72562
HEad  -4.75532 1.38785 1.78701
LeftShoulder1  0.488873 1.48386 -17.5281
LeftArm  -5.58473 31.0323 -66.0085
LeftForeArm  89.3483 -80.1915 -68.6558
LeftHand  -0.613715 -4.75192 7.31558
RightShoulder  0.0568537 -3.22154 14.9981
RightArm  -54.8037 7.28932 22.7525
RightForeArm  90.549 78.8381 105.41
RightHand  -0.0371476 8.29956 -0.689171
LeftUpLeg  1.69322 1.31673 3.08218
LeftLeg  -4.61098 18.985 -1.81947
LeftFoot  1.35387 0.360772 -3.38925
LeftToes  4.78049e-008 1.46235e-008 1.34219e-009
333
root  -3.66151 41.0144 0.142227 174.234 -87.8847 -171.618
RightUpLeg  1.03482 -0.827935 -1.06128
RightLeg  -5.21564 -18.4233 2.24864
RightFoot  2.31643 -0.26345 2.32945
RightToes  -3.1126e-008 1.75238e-005 3.56266e-009
Spine  6.5205 -2.80963 -5.09248
Spine1  -10.8932 -3.43682 6.70743
HEad  -4.31262 1.0446 1.89262
LeftShoulder1  0.514152 1.38582 -17.61
LeftArm  -5.58397 31.1419 -65.7275
LeftForeArm  87.7053 -80.0812 -67.1741
LeftHand  -0.607183 -4.79455 7.21359
RightShoulder  0.0475143 -3.26365 14.9467
RightArm  -54.741 7.98801 23.4306
RightForeArm  90.903 78.8128 105.832
RightHand  0.064452 8.20009 0.169997
LeftUpLeg  1.76345 1.27067 2.9882
LeftLeg  -4.4565 19.5619 -1.74973
LeftFoot  1.22753 0.362999 -3.42454
LeftToes  4.78049e-008 1.46235e-008 1.34219e-009
334
root  -3.62116 41.0139 0.147341 174.083 -87.6226 -171.679
RightUpLeg  1.16692 -0.789535 -1.01796
RightLeg  -5.2056 -18.193 2.18773
RightFoot  2.40142 -0.267239 2.36704
RightToes  -3.1126e-008 1.75238e-005 3.56266e-009
Spine  6.65615 -2.57224 -4.58733
Spine1  -10.8188 -3.15054 6.05615
HEad  -4.67728 0.570948 1.72006
LeftShoulder1  0.508297 1.40759 -17.58
LeftArm  -5.48392 30.4473 -65.1945
LeftForeArm  85.7652 -79.9354 -65.2313
LeftHand  -0.605973 -4.90561 7.12865
RightShoulder  0.112247 -2.97676 15.3479
RightArm  -53.8767 8.56502 23.6335
RightForeArm  91.1533 78.8518 105.553
RightHand  -0.124866 8.62693 -1.40635
LeftUpLeg  1.91551 1.34043 3.02843
LeftLeg  -4.35952 19.6962 -1.7464
LeftFoot  1.1751 0.370197 -3.52637
LeftToes  4.78049e-008 1.46235e-008 1.34219e-009
335
root  -3.57352 41.0136 0.152614 175.61 -87.322 -173.406
RightUpLeg  1.2564 -0.815927 -1.05515
RightLeg  -5.17483 -17.8633 2.13599
RightFoot  2.50858 -0.260858 2.25583
RightToes  -3.1126e-008 1.75238e-005 3.56266e-009
Spine  6.71798 -2.31957 -4.2621
Spine1  -10.7512 -2.8588 5.5716
HEad  -4.51501 0.289131 2.18601
LeftShoulder1  0.549104 1.24227 -17.6179
LeftArm  -5.31282 29.3824 -64.292
LeftForeArm  85.0002 -79.8854 -64.8617
LeftHand  -0.600425 -4.58531 7.2731
RightShoulder  0.246233 -2.38964 15.7548
RightArm  -52.6128 9.07657 23.7697
RightForeArm  91.1793 78.9142 104.921
RightHand  -0.297444 9.04057 -2.78543
LeftUpLeg  2.17149 1.32188 2.96315
LeftLeg  -4.50428 20.0699 -1.80679
LeftFoot  1.25243 0.36116 -3.36585
LeftToes  4.78049e-008 1.46235e-008 1.34219e-009
